<svg xmlns="http://www.w3.org/2000/svg" viewBox="0 0 160 160">
  <defs>
    <linearGradient id="bc_front" x1="0" y1="0" x2="1" y2="1">
      <stop offset="0%" stop-color="#FF8A7C"/>
      <stop offset="65%" stop-color="#F45E51"/>
      <stop offset="100%" stop-color="#DB4A3E"/>
    </linearGradient>
    <linearGradient id="bc_top" x1="0" y1="0" x2="1" y2="1">
      <stop offset="0%" stop-color="#FF9A8E"/>
      <stop offset="100%" stop-color="#FF7466"/>
    </linearGradient>
    <linearGradient id="bc_strap" x1="0" y1="0" x2="0" y2="1">
      <stop offset="0%" stop-color="#FFF8E9"/>
      <stop offset="100%" stop-color="#EFD6A6"/>
    </linearGradient>
    <linearGradient id="bc_buckle" x1="0" y1="0" x2="1" y2="1">
      <stop offset="0%" stop-color="#FFD970"/>
      <stop offset="100%" stop-color="#EAB93B"/>
    </linearGradient>
    <filter id="bc_shadow" x="-40%" y="-40%" width="180%" height="220%">
      <feDropShadow dx="0" dy="10" stdDeviation="9" flood-color="#B79290" flood-opacity=".28"/>
    </filter>
  </defs>
  <ellipse cx="80" cy="134" rx="39" ry="10" fill="#E9D7D4"/>
  <g filter="url(#bc_shadow)">
    <path d="M56 48c0-10 8-18 18-18h12c10 0 18 8 18 18v12H92V50c0-4-3-7-7-7h-10c-4 0-7 3-7 7v10H56z" fill="url(#bc_strap)"/>
    <rect x="34" y="56" width="92" height="60" rx="16" fill="url(#bc_front)"/>
    <path d="M34 74h92v12H34z" fill="url(#bc_top)"/>
    <rect x="70" y="56" width="20" height="60" rx="8" fill="url(#bc_strap)"/>
    <rect x="72" y="74" width="16" height="12" rx="4" fill="url(#bc_buckle)"/>
    <ellipse cx="58" cy="84" rx="16" ry="6" fill="#FFFFFF" opacity=".16"/>
    <circle cx="48" cy="90" r="4" fill="#FFB0A9" opacity=".35"/>
  </g>
</svg>