<svg width="108" height="108" viewBox="0 0 108 108" fill="none" xmlns="http://www.w3.org/2000/svg">
<rect width="108" height="108" fill="black"/>
<rect width="108" height="108" fill="url(#paint0_linear_1_797)"/>
<rect width="108" height="108" fill="#E26E2D"/>
<rect width="108" height="108" fill="url(#paint1_linear_1_797)"/>
<path d="M55.451 47.1938C54.9134 46.9847 55.8839 37.584 59.7723 32.465C60.1389 31.9824 60.7352 31.5973 61.1733 32.0161C61.6739 32.4946 61.4403 33.3726 61.0376 33.9359C56.7747 39.8977 56.1984 44.7426 55.451 47.1938Z" fill="#FAF5EF" stroke="#FAF5EF" stroke-width="0.7" stroke-linejoin="round"/>
<path d="M51.7509 49.7651C50.1811 44.7703 47.3644 40.6328 42.804 37.6128C41.9412 37.0414 41.0699 35.9221 41.8111 35.2C42.3967 34.6294 43.3221 34.9592 43.9677 35.4609C48.3125 38.8369 50.7895 43.7055 51.7509 49.7651Z" fill="#FAF5EF" stroke="#FAF5EF" stroke-width="0.7" stroke-linejoin="round"/>
<path d="M53.256 45.3751C52.5346 42.72 51.6537 40.3306 50.5157 38.3534C50.3242 38.0206 50.1596 37.5362 50.3567 37.2067C50.7683 36.5183 51.6485 37.3272 51.8944 38.0906C52.7021 40.598 53.1797 43.0327 53.2874 45.3751H53.256Z" fill="#FAF5EF" stroke="#FAF5EF" stroke-width="0.7" stroke-linejoin="round"/>
<path d="M50.4339 51.8033C47.6795 47.7151 43.5042 44.9942 37.9327 43.6654C37.0736 43.4605 36.1641 42.9034 36.5864 42.1276C36.94 41.4777 37.9236 41.3549 38.6222 41.5986C44.3589 43.5993 48.3379 46.9661 50.4026 51.8033H50.4339Z" fill="#FAF5EF" stroke="#FAF5EF" stroke-width="0.7" stroke-linejoin="round"/>
<path d="M50.6534 56.2559C45.2008 53.5707 40.1792 53.2797 35.5048 54.8391C34.3869 55.212 32.8916 54.5568 33.2855 53.4461C33.4323 53.0322 33.7899 52.861 34.2135 52.7449C40.2928 51.0774 45.8397 51.957 50.6848 56.2872L50.6534 56.2559Z" fill="#FAF5EF" stroke="#FAF5EF" stroke-width="0.7" stroke-linejoin="round"/>
<path d="M43.5981 57.0085C41.0815 57.4878 39.0229 58.3107 37.7231 59.6411C37.6078 59.7591 37.4519 59.8306 37.2869 59.8306C37.0314 59.8306 36.8061 59.663 36.7327 59.4182L36.6876 59.2679C36.6162 59.0299 36.6576 58.7687 36.8231 58.5834C38.2819 56.9505 40.7864 56.7403 43.5981 56.9771V57.0085Z" fill="#FAF5EF" stroke="#FAF5EF" stroke-width="0.7" stroke-linejoin="round"/>
<path d="M49.4305 57.7924C46.4523 59.2007 44.0691 60.6769 42.919 62.3088C42.1612 63.384 41.9605 65.7887 40.7839 65.2004C40.1193 64.8681 40.2299 63.9279 40.3683 63.4994C41.3718 60.6459 44.8524 58.9526 49.4305 57.7924Z" fill="#FAF5EF" stroke="#FAF5EF" stroke-width="0.7" stroke-linejoin="round"/>
<path d="M57.2697 59.4229C60.2974 60.8286 62.7191 62.6071 64.113 65.0398C64.4922 65.7016 65.3633 66.1753 65.8711 65.6062C65.8851 65.5905 65.8985 65.5747 65.9114 65.5587C66.0937 65.3324 66.046 65.0174 65.9242 64.7536C64.0115 61.3984 60.9071 60.0187 57.2697 59.4229Z" fill="#FAF5EF" stroke="#FAF5EF" stroke-width="0.7" stroke-linejoin="round"/>
<path d="M59.4961 57.0085L59.892 57.3079C64.5542 56.0313 69.0046 56.0921 73.1833 57.9923C74.1636 58.438 75.6802 58.2282 75.2832 57.2271C75.1487 56.8879 74.8172 56.6399 74.4842 56.4906C69.7681 54.3754 64.7344 54.8586 59.4961 57.0085Z" fill="#FAF5EF" stroke="#FAF5EF" stroke-width="0.7" stroke-linejoin="round"/>
<path d="M59.4333 55.5661C59.4217 55.5777 59.402 55.5695 59.402 55.5531V54.8386C59.402 54.7812 59.4179 54.7244 59.4479 54.6754C62.5246 49.6526 67.4258 47.156 73.4858 46.2535C74.1014 46.1618 74.7295 46.2208 75.3252 46.4012L75.3805 46.4179C75.577 46.4774 75.7484 46.5273 75.8658 46.6958C76.5141 47.6266 75.1211 48.6119 73.9869 48.5874C68.002 48.4581 63.2728 51.0208 59.4333 55.5661Z" fill="#FAF5EF" stroke="#FAF5EF" stroke-width="0.7" stroke-linejoin="round"/>
<path d="M57.4892 47.5709C57.4892 47.5703 57.4893 47.5698 57.4896 47.5694C59.913 42.723 63.5982 39.1137 69.3145 37.4668C70.6806 37.0732 72.2787 35.5639 71.0154 34.912C70.9633 34.8851 70.908 34.86 70.8497 34.8368C70.665 34.7635 70.4645 34.7451 70.2659 34.7451C69.8656 34.7451 69.471 34.846 69.1229 35.0435C62.9006 38.5738 58.6044 42.6447 57.4959 47.5716C57.495 47.5755 57.4892 47.5749 57.4892 47.5709Z" fill="#FAF5EF" stroke="#FAF5EF" stroke-width="0.7" stroke-linejoin="round"/>
<path d="M70.1574 43.1801L74.3592 40.1699H69.3421L73.4499 43.1801L71.8507 38.1944L70.1574 43.1801Z" fill="#FAF5EF" stroke="#FAF5EF" stroke-width="0.7" stroke-linejoin="round"/>
<path d="M75.7703 54.2804L79 51.9914H75.1745L78.3102 54.2804L77.0873 50.4863L75.7703 54.2804Z" fill="#FAF5EF" stroke="#FAF5EF" stroke-width="0.7" stroke-linejoin="round"/>
<path d="M67.1157 62.1196L70.3455 59.8306H66.52L69.6556 62.1196L68.4327 58.3255L67.1157 62.1196Z" fill="#FAF5EF" stroke="#FAF5EF" stroke-width="0.7" stroke-linejoin="round"/>
<path d="M37.7344 49.7024L40.3684 47.821H37.2327L39.8039 49.7024L38.8005 46.5981L37.7344 49.7024Z" fill="#FAF5EF" stroke="#FAF5EF" stroke-width="0.7" stroke-linejoin="round"/>
<path d="M51.5001 33.8358L57.3011 29.6967H50.4026L56.0468 33.8358L53.8519 27L51.5001 33.8358Z" fill="#FAF5EF" stroke="#FAF5EF" stroke-width="0.7" stroke-linejoin="round"/>
<path d="M35.1318 39.919L38.6437 37.4105H34.4733L37.8912 39.919L36.5428 35.7799L35.1318 39.919Z" fill="#FAF5EF" stroke="#FAF5EF" stroke-width="0.7" stroke-linejoin="round"/>
<path d="M30.3655 50.9566L34.7241 47.8523H29.5502L33.7834 50.9566L32.1215 45.8141L30.3655 50.9566Z" fill="#FAF5EF" stroke="#FAF5EF" stroke-width="0.7" stroke-linejoin="round"/>
<path d="M30.6022 59.6898C30.982 59.4171 31.0852 58.9109 30.8327 58.5593C30.5801 58.2076 30.0675 58.1436 29.6877 58.4163C29.3079 58.689 29.2047 59.1952 29.4572 59.5469C29.7098 59.8985 30.2224 59.9625 30.6022 59.6898Z" fill="#FAF5EF" stroke="#FAF5EF" stroke-width="0.7" stroke-linejoin="round"/>
<path d="M68.3821 46.2494C68.6494 46.0574 68.7187 45.6966 68.5369 45.4434C68.3551 45.1902 67.991 45.1405 67.7237 45.3324C67.4565 45.5243 67.3872 45.8852 67.569 46.1384C67.7508 46.3916 68.1149 46.4413 68.3821 46.2494Z" fill="#FAF5EF" stroke="#FAF5EF" stroke-width="0.7" stroke-linejoin="round"/>
<path d="M54.2908 51.2075C54.845 51.2075 55.2942 50.7582 55.2942 50.2041C55.2942 49.6499 54.845 49.2007 54.2908 49.2007C53.7366 49.2007 53.2874 49.6499 53.2874 50.2041C53.2874 50.7582 53.7366 51.2075 54.2908 51.2075Z" fill="#FAF5EF" stroke="#FAF5EF" stroke-width="0.7" stroke-linejoin="round"/>
<path d="M63.7504 46.5109C53.7231 51.0058 49.1659 58.1246 51.7628 65.5573C54.0351 72.0609 58.9424 74.3681 53.3874 81.6644C60.2581 75.8258 57.8019 73.9191 54.0351 65.4631C50.6945 57.9638 55.9912 51.5507 63.7195 46.5186L63.7504 46.5109Z" fill="#FAF5EF" stroke="#FAF5EF" stroke-width="0.7" stroke-linejoin="round"/>
<defs>
<linearGradient id="paint0_linear_1_797" x1="54" y1="0" x2="54" y2="108" gradientUnits="userSpaceOnUse">
<stop stop-color="#57B8EA"/>
<stop offset="1" stop-color="#2765D9"/>
</linearGradient>
<linearGradient id="paint1_linear_1_797" x1="54" y1="0" x2="54" y2="108" gradientUnits="userSpaceOnUse">
<stop stop-color="#E29D2D"/>
<stop offset="0.447115" stop-color="#E26E2D"/>
</linearGradient>
</defs>
</svg>
