<svg width="120" height="120" viewBox="0 0 120 120" fill="none" xmlns="http://www.w3.org/2000/svg">
<rect width="120" height="120" fill="url(#paint0_linear_1_3)"/>
<rect width="120" height="120" fill="#E26E2D"/>
<rect width="120" height="120" fill="url(#paint1_linear_1_3)"/>
<path d="M43.4307 9H76.5693C87.6681 9 92.5326 9.03501 97.751 10.667C103.122 12.6417 107.355 16.8729 109.331 22.2432C110.965 27.4628 111 32.3284 111 43.4307V76.5693C111 87.6716 110.965 92.5356 109.331 97.7559C107.356 103.124 103.127 107.353 97.7598 109.328C92.538 110.964 87.675 111 76.5693 111H43.4307C32.3242 111 27.4604 110.964 22.2393 109.328C16.8711 107.352 12.6412 103.121 10.667 97.751C9.03501 92.5326 9 87.6681 9 76.5693V43.4307C9 32.332 9.03476 27.4658 10.667 22.248C12.6424 16.8757 16.8757 12.6424 22.248 10.667C27.4658 9.03475 32.3311 9 43.4307 9Z" stroke="white" stroke-width="2"/>
<path d="M61.7707 51.2547C61.0804 50.9863 62.3263 38.9189 67.3177 32.3477C67.7883 31.7281 68.5538 31.2338 69.1162 31.7714C69.7588 32.3856 69.459 33.5128 68.9419 34.2359C63.4698 41.8889 62.73 48.1082 61.7707 51.2547Z" fill="#FAF5EF" stroke="#FAF5EF" stroke-linejoin="round"/>
<path d="M57.0209 54.5555C55.0058 48.1438 51.3899 42.8326 45.5359 38.9559C44.4283 38.2224 43.3099 36.7856 44.2614 35.8586C45.0131 35.1261 46.201 35.5495 47.0297 36.1935C52.607 40.5272 55.7868 46.777 57.0209 54.5555Z" fill="#FAF5EF" stroke="#FAF5EF" stroke-linejoin="round"/>
<path d="M58.953 48.9201C58.0268 45.5119 56.8961 42.4446 55.4353 39.9066C55.1894 39.4794 54.9782 38.8576 55.2311 38.4345C55.7595 37.5509 56.8894 38.5892 57.2051 39.5692C58.2419 42.7879 58.855 45.9133 58.9932 48.9201H58.953Z" fill="#FAF5EF" stroke="#FAF5EF" stroke-linejoin="round"/>
<path d="M55.3303 57.1719C51.7944 51.924 46.4347 48.4312 39.2827 46.7254C38.1799 46.4624 37.0124 45.7472 37.5544 44.7514C38.0084 43.9172 39.271 43.7595 40.1678 44.0723C47.5319 46.6406 52.6396 50.9625 55.29 57.1719H55.3303Z" fill="#FAF5EF" stroke="#FAF5EF" stroke-linejoin="round"/>
<path d="M55.6121 62.8876C48.6126 59.4407 42.1664 59.0672 36.166 61.0689C34.731 61.5476 32.8116 60.7066 33.3172 59.2808C33.5056 58.7495 33.9647 58.5297 34.5084 58.3806C42.3123 56.2401 49.4328 57.3692 55.6523 62.9279L55.6121 62.8876Z" fill="#FAF5EF" stroke="#FAF5EF" stroke-linejoin="round"/>
<path d="M46.5553 63.8536C43.3248 64.469 40.6822 65.5252 39.0137 67.2331C38.8657 67.3846 38.6655 67.4763 38.4537 67.4763C38.1257 67.4763 37.8365 67.2612 37.7423 66.947L37.6844 66.754C37.5927 66.4485 37.6458 66.1132 37.8583 65.8754C39.7309 63.7793 42.9458 63.5094 46.5553 63.8134V63.8536Z" fill="#FAF5EF" stroke="#FAF5EF" stroke-linejoin="round"/>
<path d="M54.0422 64.86C50.2192 66.6677 47.1599 68.5628 45.6835 70.6576C44.7107 72.0378 44.453 75.1246 42.9427 74.3694C42.0895 73.9428 42.2316 72.736 42.4093 72.1859C43.6973 68.5229 48.1653 66.3493 54.0422 64.86Z" fill="#FAF5EF" stroke="#FAF5EF" stroke-linejoin="round"/>
<path d="M64.1053 66.9531C67.9918 68.7576 71.1005 71.0406 72.8898 74.1634C73.3766 75.0129 74.4949 75.621 75.1467 74.8905C75.1646 74.8704 75.1819 74.8501 75.1984 74.8295C75.4324 74.539 75.3712 74.1347 75.2149 73.796C72.7595 69.489 68.7745 67.7179 64.1053 66.9531Z" fill="#FAF5EF" stroke="#FAF5EF" stroke-linejoin="round"/>
<path d="M66.9632 63.8537L67.4714 64.238C73.4562 62.5993 79.169 62.6774 84.5332 65.1166C85.7916 65.6888 87.7384 65.4194 87.2289 64.1344C87.0562 63.6989 86.6306 63.3806 86.2032 63.1889C80.1492 60.4737 73.6876 61.0939 66.9632 63.8537Z" fill="#FAF5EF" stroke="#FAF5EF" stroke-linejoin="round"/>
<path d="M66.8826 62.0021C66.8678 62.017 66.8424 62.0065 66.8424 61.9855V61.0683C66.8424 60.9946 66.8628 60.9217 66.9013 60.8588C70.8509 54.4111 77.1425 51.2062 84.9215 50.0477C85.7118 49.93 86.518 50.0058 87.2827 50.2373L87.3537 50.2588C87.606 50.3352 87.826 50.3992 87.9766 50.6154C88.8089 51.8104 87.0207 53.0752 85.5648 53.0438C77.8821 52.8777 71.8113 56.1674 66.8826 62.0021Z" fill="#FAF5EF" stroke="#FAF5EF" stroke-linejoin="round"/>
<path d="M64.3871 51.7388C64.3871 51.7381 64.3872 51.7375 64.3875 51.7369C67.4984 45.5157 72.229 40.8825 79.567 38.7684C81.3205 38.2632 83.372 36.3258 81.7503 35.4889C81.6834 35.4543 81.6125 35.4222 81.5376 35.3924C81.3006 35.2982 81.0432 35.2747 80.7882 35.2747C80.2744 35.2747 79.7678 35.4042 79.321 35.6577C71.3335 40.1894 65.8186 45.4152 64.3956 51.7397C64.3945 51.7448 64.3871 51.744 64.3871 51.7388Z" fill="#FAF5EF" stroke="#FAF5EF" stroke-linejoin="round"/>
<path d="M80.6489 46.1026L86.0427 42.2383H79.6024L84.8754 46.1026L82.8226 39.7025L80.6489 46.1026Z" fill="#FAF5EF" stroke="#FAF5EF" stroke-linejoin="round"/>
<path d="M87.854 60.3518L92 57.4134H87.0892L91.1145 60.3518L89.5446 55.4813L87.854 60.3518Z" fill="#FAF5EF" stroke="#FAF5EF" stroke-linejoin="round"/>
<path d="M76.7444 70.4148L80.8904 67.4764H75.9796L80.0048 70.4148L78.435 65.5443L76.7444 70.4148Z" fill="#FAF5EF" stroke="#FAF5EF" stroke-linejoin="round"/>
<path d="M39.0281 54.475L42.4093 52.0598H38.3841L41.6847 54.475L40.3967 50.49L39.0281 54.475Z" fill="#FAF5EF" stroke="#FAF5EF" stroke-linejoin="round"/>
<path d="M56.6989 34.1074L64.1456 28.7941H55.2901L62.5355 34.1074L59.7178 25.3324L56.6989 34.1074Z" fill="#FAF5EF" stroke="#FAF5EF" stroke-linejoin="round"/>
<path d="M35.6872 41.9163L40.1955 38.6961H34.8419L39.2294 41.9163L37.4986 36.603L35.6872 41.9163Z" fill="#FAF5EF" stroke="#FAF5EF" stroke-linejoin="round"/>
<path d="M29.5689 56.0851L35.1639 52.1001H28.5223L33.9564 56.0851L31.823 49.4837L29.5689 56.0851Z" fill="#FAF5EF" stroke="#FAF5EF" stroke-linejoin="round"/>
<path d="M29.8726 67.2957C30.3602 66.9456 30.4927 66.2959 30.1685 65.8444C29.8444 65.393 29.1863 65.3108 28.6988 65.6609C28.2112 66.011 28.0788 66.6608 28.4029 67.1122C28.7271 67.5637 29.3851 67.6458 29.8726 67.2957Z" fill="#FAF5EF" stroke="#FAF5EF" stroke-linejoin="round"/>
<path d="M78.37 50.0425C78.7131 49.7961 78.802 49.3329 78.5686 49.0079C78.3353 48.6828 77.8679 48.619 77.5248 48.8654C77.1817 49.1118 77.0928 49.575 77.3262 49.9C77.5596 50.225 78.0269 50.2888 78.37 50.0425Z" fill="#FAF5EF" stroke="#FAF5EF" stroke-linejoin="round"/>
<path d="M60.2813 56.4071C60.9927 56.4071 61.5694 55.8304 61.5694 55.119C61.5694 54.4076 60.9927 53.8309 60.2813 53.8309C59.5699 53.8309 58.9932 54.4076 58.9932 55.119C58.9932 55.8304 59.5699 56.4071 60.2813 56.4071Z" fill="#FAF5EF" stroke="#FAF5EF" stroke-linejoin="round"/>
<path d="M72.4243 50.3782C59.5525 56.1482 53.7025 65.2864 57.0361 74.8277C59.953 83.1763 66.2524 86.138 59.1216 95.504C67.9413 88.0092 64.7884 85.5616 59.953 74.7067C55.6648 65.0801 62.4641 56.8477 72.3847 50.3881L72.4243 50.3782Z" fill="#FAF5EF" stroke="#FAF5EF" stroke-linejoin="round"/>
<defs>
<linearGradient id="paint0_linear_1_3" x1="60" y1="0" x2="60" y2="120" gradientUnits="userSpaceOnUse">
<stop stop-color="#57B8EA"/>
<stop offset="1" stop-color="#2765D9"/>
</linearGradient>
<linearGradient id="paint1_linear_1_3" x1="60" y1="0" x2="60" y2="120" gradientUnits="userSpaceOnUse">
<stop stop-color="#E29D2D"/>
<stop offset="0.375" stop-color="#E26E2D"/>
</linearGradient>
</defs>
</svg>
