<svg xmlns="http://www.w3.org/2000/svg" viewBox="0 0 160 160">
  <defs>
    <linearGradient id="mg_orange" x1="0" y1="0" x2="1" y2="1">
      <stop offset="0%" stop-color="#FFB55D"/>
      <stop offset="60%" stop-color="#FF962E"/>
      <stop offset="100%" stop-color="#F57D00"/>
    </linearGradient>
    <linearGradient id="mg_cream" x1="0" y1="0" x2="1" y2="1">
      <stop offset="0%" stop-color="#FFF9EF"/>
      <stop offset="100%" stop-color="#FFE6BE"/>
    </linearGradient>
    <filter id="mg_shadow" x="-40%" y="-40%" width="180%" height="220%">
      <feDropShadow dx="0" dy="10" stdDeviation="9" flood-color="#C0A082" flood-opacity=".26"/>
    </filter>
  </defs>
  <ellipse cx="80" cy="134" rx="36" ry="10" fill="#EFE1D0"/>
  <g filter="url(#mg_shadow)">
    <path d="M53 62l43-22c7-4 16 1 16 10v29c0 9-9 14-16 10L53 67z" fill="url(#mg_orange)"/>
    <path d="M46 60h11l39 20V47L57 54H46c-7 0-12 5-12 12v6c0 7 5 12 12 12h8" fill="url(#mg_cream)"/>
    <path d="M46 60h10v24H46c-6 0-10-4-10-10v-4c0-6 4-10 10-10z" fill="#FF9B2F"/>
    <path d="M58 83l9-1 8 20-10 5z" fill="#FF9527"/>
    <path d="M117 55c7 3 12 10 12 17s-5 14-12 17" stroke="#FF8A17" stroke-width="7" stroke-linecap="round" fill="none"/>
    <path d="M126 44c10 5 17 15 17 28s-7 23-17 28" stroke="#FFB861" stroke-width="5.5" stroke-linecap="round" fill="none"/>
    <ellipse cx="70" cy="58" rx="14" ry="6" fill="#FFFFFF" opacity=".16"/>
  </g>
</svg>